<?xml version="1.0" encoding="utf-8" standalone="no"?>
<!DOCTYPE svg PUBLIC "-//W3C//DTD SVG 1.1//EN"
  "http://www.w3.org/Graphics/SVG/1.1/DTD/svg11.dtd">
<!-- Created with matplotlib (https://matplotlib.org/) -->
<svg height="180pt" version="1.1" viewBox="0 0 288 180" width="288pt" xmlns="http://www.w3.org/2000/svg" xmlns:xlink="http://www.w3.org/1999/xlink">
 <defs>
  <style type="text/css">
*{stroke-linecap:butt;stroke-linejoin:round;white-space:pre;}
  </style>
 </defs>
 <g id="figure_1">
  <g id="patch_1">
   <path d="M 0 180 
L 288 180 
L 288 0 
L 0 0 
z
" style="fill:#ffffff;"/>
  </g>
  <g id="axes_1">
   <g id="patch_2">
    <path d="M 10.384646 165.959104 
L 285.165354 165.959104 
L 285.165354 5.607771 
L 10.384646 5.607771 
z
" style="fill:#ffffff;"/>
   </g>
   <g id="matplotlib.axis_1">
    <g id="xtick_1">
     <g id="line2d_1">
      <path clip-path="url(#p523ca2dc7d)" d="M 46.964467 165.959104 
L 46.964467 5.607771 
" style="fill:none;stroke:#000000;stroke-linecap:square;stroke-opacity:0.1;stroke-width:0.5;"/>
     </g>
     <g id="line2d_2">
      <defs>
       <path d="M 0 0 
L 0 -3.5 
" id="m1031827293" style="stroke:#000000;stroke-width:0.8;"/>
      </defs>
      <g>
       <use style="stroke:#000000;stroke-width:0.8;" x="46.964467" xlink:href="#m1031827293" y="165.959104"/>
      </g>
     </g>
     <g id="text_1">
      <!-- 2 -->
      <defs>
       <path d="M 1.65625 0 
L 1.65625 2.734375 
Q 3.171875 4.640625 7.125 8.6875 
L 18.015625 20.015625 
Q 19.28125 21.34375 24.21875 26.90625 
Q 27.9375 31.15625 30.03125 34.640625 
Q 32.125 38.140625 33.09375 41.4375 
Q 34.078125 44.734375 34.078125 47.703125 
Q 34.078125 52.78125 31.25 56.5 
Q 27.59375 61.421875 20.609375 61.421875 
Q 16.703125 61.421875 13.765625 60.15625 
Q 10.84375 58.890625 9.84375 57.34375 
Q 8.84375 55.8125 6.890625 48.53125 
L 3.953125 48.53125 
Q 5.125 55.078125 5.609375 62.015625 
Q 8.6875 64.9375 10.765625 66.203125 
Q 12.84375 67.484375 15.859375 68.234375 
Q 18.890625 69 22.46875 69 
Q 28.859375 69 33.25 66.828125 
Q 37.640625 64.65625 40.28125 60.359375 
Q 42.921875 56.0625 42.921875 50.640625 
Q 42.921875 44.78125 39.921875 39.09375 
Q 36.921875 33.40625 27.4375 23.96875 
L 19.09375 15.671875 
Q 14.546875 11.140625 12.203125 8.453125 
L 33.640625 8.453125 
Q 40.09375 8.453125 46.296875 9.078125 
L 46.625 8.6875 
Q 46.34375 6.84375 46.34375 4.34375 
Q 46.34375 2.09375 46.625 0.53125 
L 46.296875 0 
Q 42.828125 0.203125 38.375 0.296875 
Q 28.421875 0.484375 25.046875 0.484375 
Q 20.796875 0.484375 10.75 0.296875 
Q 5.21875 0.203125 1.65625 0 
z
" id="Palatino-Roman-50"/>
      </defs>
      <g transform="translate(44.964467 175.279104)scale(0.08 -0.08)">
       <use xlink:href="#Palatino-Roman-50"/>
      </g>
     </g>
    </g>
    <g id="xtick_2">
     <g id="line2d_3">
      <path clip-path="url(#p523ca2dc7d)" d="M 104.570486 165.959104 
L 104.570486 5.607771 
" style="fill:none;stroke:#000000;stroke-linecap:square;stroke-opacity:0.1;stroke-width:0.5;"/>
     </g>
     <g id="line2d_4">
      <g>
       <use style="stroke:#000000;stroke-width:0.8;" x="104.570486" xlink:href="#m1031827293" y="165.959104"/>
      </g>
     </g>
     <g id="text_2">
      <!-- 4 -->
      <defs>
       <path d="M 15.671875 0 
L 15.671875 2.875 
Q 23.296875 3.03125 24.609375 3.296875 
Q 25.921875 3.5625 26.46875 4.15625 
Q 27.15625 4.984375 27.4375 7.125 
Q 27.875 10.75 27.875 14.59375 
L 27.875 18.21875 
L 17.1875 18.21875 
Q 8.34375 18.21875 1.421875 17.921875 
L 0.59375 20.5625 
Q 4.34375 27.640625 10.640625 37.890625 
Q 19.828125 52.828125 28.953125 66.65625 
Q 29.5 66.890625 31.59375 67.78125 
Q 35.296875 69.234375 35.84375 69.4375 
L 37.0625 68.84375 
Q 36.71875 62.984375 36.625 54.390625 
Q 36.375 36.28125 36.375 34.515625 
L 36.375 24.421875 
Q 43.015625 24.46875 47.265625 24.75 
Q 47.125 22.3125 47.125 21.53125 
L 47.265625 17.921875 
Q 42.28125 18.21875 38.875 18.21875 
L 36.375 18.21875 
L 36.375 14.9375 
Q 36.375 6.734375 37.109375 4.9375 
Q 37.40625 4.203125 38.28125 3.765625 
Q 40.140625 2.9375 47.265625 2.875 
L 47.265625 0 
Q 36.71875 0.390625 31.0625 0.390625 
Q 24.953125 0.390625 15.671875 0 
z
M 7.03125 24.421875 
L 27.875 24.421875 
L 28.328125 59.125 
Q 23 51.46875 16.28125 40.375 
Q 9.578125 29.296875 7.03125 24.421875 
z
" id="Palatino-Roman-52"/>
      </defs>
      <g transform="translate(102.570486 175.279104)scale(0.08 -0.08)">
       <use xlink:href="#Palatino-Roman-52"/>
      </g>
     </g>
    </g>
    <g id="xtick_3">
     <g id="line2d_5">
      <path clip-path="url(#p523ca2dc7d)" d="M 162.176505 165.959104 
L 162.176505 5.607771 
" style="fill:none;stroke:#000000;stroke-linecap:square;stroke-opacity:0.1;stroke-width:0.5;"/>
     </g>
     <g id="line2d_6">
      <g>
       <use style="stroke:#000000;stroke-width:0.8;" x="162.176505" xlink:href="#m1031827293" y="165.959104"/>
      </g>
     </g>
     <g id="text_3">
      <!-- 6 -->
      <defs>
       <path d="M 42.1875 67.921875 
L 42.1875 67.328125 
Q 36.765625 66.109375 30.859375 62.5 
Q 24.953125 58.890625 21.1875 54.265625 
Q 17.4375 49.65625 15.59375 44.796875 
Q 13.765625 39.9375 13.234375 33.640625 
Q 16.0625 35.640625 17.4375 36.671875 
Q 20.953125 39.40625 21.953125 39.9375 
Q 22.953125 40.484375 24.6875 40.890625 
Q 26.421875 41.3125 28.859375 41.3125 
Q 37.359375 41.3125 41.984375 36.46875 
Q 46.625 31.640625 46.625 22.46875 
Q 46.625 16.21875 44.34375 11.578125 
Q 42 6.84375 39.234375 4.390625 
Q 36.46875 1.953125 32.875 0.265625 
Q 29.296875 -1.421875 24.078125 -1.421875 
Q 15.140625 -1.421875 9.28125 5.34375 
Q 3.421875 12.109375 3.421875 25.046875 
Q 3.421875 33.9375 6.171875 41.453125 
Q 8.9375 48.96875 13.71875 54.390625 
Q 18.5 59.8125 25.109375 63.890625 
Q 31.734375 67.96875 38.625 69.625 
z
M 12.3125 21.34375 
Q 12.3125 17.484375 13.1875 13.671875 
Q 13.71875 11.421875 14.671875 9.265625 
Q 15.625 7.125 17.15625 5.421875 
Q 18.703125 3.71875 20.828125 2.78125 
Q 22.953125 1.859375 25.4375 1.859375 
Q 28.8125 1.859375 31.71875 3.6875 
Q 34.625 5.515625 36.40625 9.640625 
Q 38.1875 13.765625 38.1875 19.09375 
Q 38.1875 24.21875 36.453125 28.046875 
Q 34.71875 31.890625 31.65625 33.6875 
Q 28.609375 35.5 25.203125 35.5 
Q 20.90625 35.5 16.796875 32.625 
Q 13.875 30.5625 13.09375 28.296875 
Q 12.3125 26.03125 12.3125 21.34375 
z
" id="Palatino-Roman-54"/>
      </defs>
      <g transform="translate(160.176505 175.279104)scale(0.08 -0.08)">
       <use xlink:href="#Palatino-Roman-54"/>
      </g>
     </g>
    </g>
    <g id="xtick_4">
     <g id="line2d_7">
      <path clip-path="url(#p523ca2dc7d)" d="M 219.782523 165.959104 
L 219.782523 5.607771 
" style="fill:none;stroke:#000000;stroke-linecap:square;stroke-opacity:0.1;stroke-width:0.5;"/>
     </g>
     <g id="line2d_8">
      <g>
       <use style="stroke:#000000;stroke-width:0.8;" x="219.782523" xlink:href="#m1031827293" y="165.959104"/>
      </g>
     </g>
     <g id="text_4">
      <!-- 8 -->
      <defs>
       <path d="M 16.40625 35.015625 
Q 10.40625 38.1875 7.890625 42.015625 
Q 5.375 45.84375 5.375 50.78125 
Q 5.375 58.34375 10.984375 63.59375 
Q 16.609375 68.84375 25.78125 68.84375 
Q 31.0625 68.84375 35.1875 67.03125 
Q 39.3125 65.234375 41.40625 61.90625 
Q 43.5 58.59375 43.5 54.6875 
Q 43.5 51.703125 42.203125 48.828125 
Q 40.921875 45.953125 38.03125 43.21875 
Q 35.84375 41.15625 31.546875 38.484375 
L 31.546875 38.03125 
Q 37.703125 35.109375 39.9375 33.453125 
Q 42.96875 31.25 44.625 28.078125 
Q 46.296875 24.90625 46.296875 20.75 
Q 46.296875 15.28125 43.1875 9.9375 
Q 40.09375 4.59375 34.5 1.640625 
Q 28.90625 -1.3125 22.5625 -1.3125 
Q 17.046875 -1.3125 12.46875 0.953125 
Q 7.90625 3.21875 5.515625 7.25 
Q 3.125 11.28125 3.125 16.21875 
Q 3.125 22.125 6.640625 26.90625 
Q 10.15625 31.6875 16.40625 34.578125 
z
M 27.78125 39.703125 
Q 32.765625 42.875 34.734375 46 
Q 36.71875 49.125 36.71875 53.375 
Q 36.71875 56.890625 35.28125 59.734375 
Q 33.84375 62.59375 31.078125 64.0625 
Q 28.328125 65.53125 24.8125 65.53125 
Q 19.34375 65.53125 16.09375 62.46875 
Q 12.84375 59.421875 12.84375 54.5 
Q 12.84375 49.65625 15.71875 46.921875 
Q 18.609375 44.1875 27.78125 39.703125 
z
M 20.359375 33.25 
Q 14.796875 29.828125 12.453125 26.0625 
Q 10.109375 22.3125 10.109375 17 
Q 10.109375 12.5 11.8125 9.078125 
Q 13.53125 5.671875 16.875 3.859375 
Q 20.21875 2.046875 24.078125 2.046875 
Q 28.078125 2.046875 31.484375 3.90625 
Q 34.90625 5.765625 36.6875 9.15625 
Q 38.484375 12.546875 38.484375 16.75 
Q 38.484375 20.359375 36.96875 22.84375 
Q 35.453125 25.34375 31.765625 27.578125 
Q 28.078125 29.828125 20.359375 33.25 
z
" id="Palatino-Roman-56"/>
      </defs>
      <g transform="translate(217.782523 175.279104)scale(0.08 -0.08)">
       <use xlink:href="#Palatino-Roman-56"/>
      </g>
     </g>
    </g>
    <g id="xtick_5">
     <g id="line2d_9">
      <path clip-path="url(#p523ca2dc7d)" d="M 277.388542 165.959104 
L 277.388542 5.607771 
" style="fill:none;stroke:#000000;stroke-linecap:square;stroke-opacity:0.1;stroke-width:0.5;"/>
     </g>
     <g id="line2d_10">
      <g>
       <use style="stroke:#000000;stroke-width:0.8;" x="277.388542" xlink:href="#m1031827293" y="165.959104"/>
      </g>
     </g>
     <g id="text_5">
      <!-- 10 -->
      <defs>
       <path d="M 7.46875 55.609375 
L 6.59375 55.859375 
L 6.109375 59.859375 
L 6.59375 60.359375 
Q 11.8125 61.859375 17.96875 64.5 
Q 27.046875 68.359375 29.640625 69.671875 
L 30.90625 69.1875 
Q 30.125 46.828125 30.125 43.5 
L 30.125 25.390625 
Q 30.125 14.546875 30.375 8.984375 
Q 30.515625 5.71875 31.171875 4.859375 
Q 31.84375 4 33.125 3.625 
Q 34.421875 3.265625 41.609375 2.984375 
L 41.609375 0 
Q 29.25 0.390625 26.125 0.390625 
Q 23.78125 0.390625 9.578125 0 
L 9.578125 2.984375 
Q 17 3.421875 18.140625 3.6875 
Q 19.28125 3.953125 19.84375 4.484375 
Q 20.40625 5.03125 20.65625 6 
Q 21.046875 7.515625 21.328125 14.71875 
Q 21.625 21.921875 21.625 25.640625 
L 21.625 44.875 
Q 21.625 56.640625 21.578125 59.625 
Q 21.578125 60.9375 21.234375 61.28125 
Q 21.046875 61.46875 20.703125 61.46875 
Q 20.265625 61.46875 18.453125 60.6875 
Q 10.15625 56.984375 7.46875 55.609375 
z
" id="Palatino-Roman-49"/>
       <path d="M 3.03125 30.21875 
Q 3.03125 44.140625 5.03125 51.703125 
Q 7.03125 59.28125 12.296875 64.203125 
Q 17.578125 69.140625 25.6875 69.140625 
Q 29.78125 69.140625 33.265625 67.75 
Q 36.765625 66.359375 38.984375 64.234375 
Q 41.21875 62.109375 42.75 59 
Q 44.28125 55.90625 44.921875 52.78125 
Q 46.390625 45.65625 46.390625 37.25 
Q 46.390625 26.3125 44.671875 18.5 
Q 43.703125 14.0625 41.890625 10.375 
Q 40.09375 6.6875 37.59375 4.09375 
Q 35.109375 1.515625 31.59375 -0.015625 
Q 28.078125 -1.5625 23.6875 -1.5625 
Q 18.359375 -1.5625 14.546875 0.6875 
Q 10.75 2.9375 8.5 6.453125 
Q 5.375 11.46875 4.203125 17.9375 
Q 3.03125 24.421875 3.03125 30.21875 
z
M 11.421875 33.0625 
Q 11.421875 26.03125 12.34375 19.265625 
Q 13.28125 12.5 15.28125 8.296875 
Q 16.65625 5.46875 19.28125 3.65625 
Q 21.921875 1.859375 25.203125 1.859375 
Q 30.765625 1.859375 33.734375 6.5 
Q 38.03125 13.140625 38.03125 32.90625 
Q 38.03125 41.40625 37.125 48.171875 
Q 36.234375 54.9375 34.125 59.28125 
Q 32.765625 62.0625 30.296875 63.84375 
Q 27.828125 65.625 24.359375 65.625 
Q 20.5625 65.625 17.546875 63.1875 
Q 14.546875 60.75 12.984375 54.328125 
Q 11.421875 47.90625 11.421875 33.0625 
z
" id="Palatino-Roman-48"/>
      </defs>
      <g transform="translate(273.388542 175.279104)scale(0.08 -0.08)">
       <use xlink:href="#Palatino-Roman-49"/>
       <use x="50" xlink:href="#Palatino-Roman-48"/>
      </g>
     </g>
    </g>
   </g>
   <g id="matplotlib.axis_2">
    <g id="ytick_1">
     <g id="line2d_11">
      <path clip-path="url(#p523ca2dc7d)" d="M 10.384646 165.959104 
L 285.165354 165.959104 
" style="fill:none;stroke:#000000;stroke-linecap:square;stroke-opacity:0.1;stroke-width:0.5;"/>
     </g>
     <g id="line2d_12">
      <defs>
       <path d="M 0 0 
L 3.5 0 
" id="m6977514e79" style="stroke:#000000;stroke-width:0.8;"/>
      </defs>
      <g>
       <use style="stroke:#000000;stroke-width:0.8;" x="10.384646" xlink:href="#m6977514e79" y="165.959104"/>
      </g>
     </g>
     <g id="text_6">
      <!-- 0 -->
      <g transform="translate(2.884646 168.869104)scale(0.08 -0.08)">
       <use xlink:href="#Palatino-Roman-48"/>
      </g>
     </g>
    </g>
    <g id="ytick_2">
     <g id="line2d_13">
      <path clip-path="url(#p523ca2dc7d)" d="M 10.384646 133.888838 
L 285.165354 133.888838 
" style="fill:none;stroke:#000000;stroke-linecap:square;stroke-opacity:0.1;stroke-width:0.5;"/>
     </g>
     <g id="line2d_14">
      <g>
       <use style="stroke:#000000;stroke-width:0.8;" x="10.384646" xlink:href="#m6977514e79" y="133.888838"/>
      </g>
     </g>
     <g id="text_7">
      <!-- 1 -->
      <g transform="translate(2.884646 136.798838)scale(0.08 -0.08)">
       <use xlink:href="#Palatino-Roman-49"/>
      </g>
     </g>
    </g>
    <g id="ytick_3">
     <g id="line2d_15">
      <path clip-path="url(#p523ca2dc7d)" d="M 10.384646 101.818571 
L 285.165354 101.818571 
" style="fill:none;stroke:#000000;stroke-linecap:square;stroke-opacity:0.1;stroke-width:0.5;"/>
     </g>
     <g id="line2d_16">
      <g>
       <use style="stroke:#000000;stroke-width:0.8;" x="10.384646" xlink:href="#m6977514e79" y="101.818571"/>
      </g>
     </g>
     <g id="text_8">
      <!-- 2 -->
      <g transform="translate(2.884646 104.728571)scale(0.08 -0.08)">
       <use xlink:href="#Palatino-Roman-50"/>
      </g>
     </g>
    </g>
    <g id="ytick_4">
     <g id="line2d_17">
      <path clip-path="url(#p523ca2dc7d)" d="M 10.384646 69.748304 
L 285.165354 69.748304 
" style="fill:none;stroke:#000000;stroke-linecap:square;stroke-opacity:0.1;stroke-width:0.5;"/>
     </g>
     <g id="line2d_18">
      <g>
       <use style="stroke:#000000;stroke-width:0.8;" x="10.384646" xlink:href="#m6977514e79" y="69.748304"/>
      </g>
     </g>
     <g id="text_9">
      <!-- 3 -->
      <defs>
       <path d="M 5.078125 1.515625 
Q 4.390625 5.671875 3.859375 7.90625 
Q 3.515625 9.328125 1.65625 15.96875 
L 4.34375 17 
Q 7.421875 8.796875 11.390625 5.890625 
Q 15.375 2.984375 21.78125 2.984375 
Q 26.46875 2.984375 29.65625 4.828125 
Q 32.859375 6.6875 34.859375 10.734375 
Q 36.859375 14.796875 36.859375 19.875 
Q 36.859375 26.65625 33.390625 30.296875 
Q 29.9375 33.9375 24.078125 33.9375 
Q 22.125 33.9375 20.4375 33.546875 
Q 18.75 33.15625 15.4375 31.78125 
L 14.84375 32.28125 
L 15.921875 37.59375 
Q 19.828125 37.359375 21.140625 37.359375 
Q 27.09375 37.359375 30.34375 41.53125 
Q 33.59375 45.703125 33.59375 50.984375 
Q 33.59375 55.71875 30.140625 59.03125 
Q 26.703125 62.359375 21.4375 62.359375 
Q 18.265625 62.359375 15.328125 61.078125 
Q 12.40625 59.8125 10.15625 57.671875 
Q 9.28125 55.8125 7.375 50.6875 
L 4.34375 50.6875 
L 7.375 62.40625 
Q 10.640625 65.828125 13.53125 67.1875 
Q 18.265625 69.34375 23.875 69.34375 
Q 32.125 69.34375 36.9375 64.984375 
Q 41.75 60.640625 41.75 54.4375 
Q 41.75 50.25 39.25 46.171875 
Q 36.765625 42.09375 30.8125 37.84375 
Q 36.328125 37.109375 39.515625 35.328125 
Q 42.71875 33.546875 44.421875 30.296875 
Q 46.140625 27.046875 46.140625 23.046875 
Q 46.140625 17.234375 42.46875 11.609375 
Q 38.8125 6 32.171875 2.34375 
Q 25.53125 -1.3125 17.78125 -1.3125 
Q 14.359375 -1.3125 11.515625 -0.671875 
Q 8.6875 -0.046875 5.078125 1.515625 
z
" id="Palatino-Roman-51"/>
      </defs>
      <g transform="translate(2.884646 72.658304)scale(0.08 -0.08)">
       <use xlink:href="#Palatino-Roman-51"/>
      </g>
     </g>
    </g>
    <g id="ytick_5">
     <g id="line2d_19">
      <path clip-path="url(#p523ca2dc7d)" d="M 10.384646 37.678037 
L 285.165354 37.678037 
" style="fill:none;stroke:#000000;stroke-linecap:square;stroke-opacity:0.1;stroke-width:0.5;"/>
     </g>
     <g id="line2d_20">
      <g>
       <use style="stroke:#000000;stroke-width:0.8;" x="10.384646" xlink:href="#m6977514e79" y="37.678037"/>
      </g>
     </g>
     <g id="text_10">
      <!-- 4 -->
      <g transform="translate(2.884646 40.588037)scale(0.08 -0.08)">
       <use xlink:href="#Palatino-Roman-52"/>
      </g>
     </g>
    </g>
    <g id="ytick_6">
     <g id="line2d_21">
      <path clip-path="url(#p523ca2dc7d)" d="M 10.384646 5.607771 
L 285.165354 5.607771 
" style="fill:none;stroke:#000000;stroke-linecap:square;stroke-opacity:0.1;stroke-width:0.5;"/>
     </g>
     <g id="line2d_22">
      <g>
       <use style="stroke:#000000;stroke-width:0.8;" x="10.384646" xlink:href="#m6977514e79" y="5.607771"/>
      </g>
     </g>
     <g id="text_11">
      <!-- 5 -->
      <defs>
       <path d="M 6.453125 1.078125 
Q 5.328125 4.390625 4.640625 6.15625 
L 1.421875 14.109375 
L 3.8125 15.53125 
Q 8.203125 7.515625 9.21875 6.5625 
Q 10.25 5.609375 13.8125 4.34375 
Q 17.390625 3.078125 21.09375 3.078125 
Q 25.984375 3.078125 29.65625 5.125 
Q 33.34375 7.171875 35.375 11.25 
Q 37.40625 15.328125 37.40625 21.09375 
Q 37.40625 29.59375 32.78125 33.6875 
Q 28.171875 37.796875 21.875 37.796875 
Q 18.171875 37.796875 15.140625 36.375 
Q 12.84375 35.25 9.671875 31.78125 
L 7.671875 32.375 
L 8.25 44.4375 
Q 8.34375 47.171875 8.34375 48.875 
L 8.34375 57.5625 
Q 8.34375 61.46875 8.109375 65.375 
Q 8.015625 66.890625 7.953125 67.828125 
L 8.59375 68.3125 
Q 16.546875 67.71875 25.296875 67.71875 
Q 32.71875 67.71875 43.0625 68.3125 
L 43.3125 67.828125 
Q 42.96875 65.328125 42.96875 63.328125 
Q 42.96875 62.359375 43.0625 59.96875 
L 42.578125 59.671875 
Q 35.796875 60.109375 22.265625 60.109375 
Q 17.28125 60.109375 12.84375 59.96875 
Q 12.109375 53.21875 11.859375 39.65625 
Q 15.765625 42.484375 18.890625 43.578125 
Q 22.015625 44.671875 25.828125 44.671875 
Q 31.5 44.671875 36.203125 42.25 
Q 40.921875 39.84375 43.453125 35.296875 
Q 46 30.765625 46 25.34375 
Q 46 16.890625 40.234375 9.625 
Q 31.546875 -1.421875 16.890625 -1.421875 
Q 13.671875 -1.421875 11.390625 -0.859375 
Q 9.125 -0.296875 6.453125 1.078125 
z
" id="Palatino-Roman-53"/>
      </defs>
      <g transform="translate(2.884646 8.517771)scale(0.08 -0.08)">
       <use xlink:href="#Palatino-Roman-53"/>
      </g>
     </g>
    </g>
   </g>
   <g id="PathCollection_1">
    <defs>
     <path d="M 0 2 
C 0.530406 2 1.03916 1.789267 1.414214 1.414214 
C 1.789267 1.03916 2 0.530406 2 0 
C 2 -0.530406 1.789267 -1.03916 1.414214 -1.414214 
C 1.03916 -1.789267 0.530406 -2 0 -2 
C -0.530406 -2 -1.03916 -1.789267 -1.414214 -1.414214 
C -1.789267 -1.03916 -2 -0.530406 -2 0 
C -2 0.530406 -1.789267 1.03916 -1.414214 1.414214 
C -1.03916 1.789267 -0.530406 2 0 2 
z
" id="m15667a3d2b" style="stroke:#000000;"/>
    </defs>
    <g clip-path="url(#p523ca2dc7d)">
     <use style="fill:#009afa;stroke:#000000;" x="18.161458" xlink:href="#m15667a3d2b" y="31.263984"/>
     <use style="fill:#009afa;stroke:#000000;" x="46.964467" xlink:href="#m15667a3d2b" y="66.541277"/>
     <use style="fill:#009afa;stroke:#000000;" x="75.767477" xlink:href="#m15667a3d2b" y="12.021824"/>
     <use style="fill:#009afa;stroke:#000000;" x="104.570486" xlink:href="#m15667a3d2b" y="140.302891"/>
     <use style="fill:#009afa;stroke:#000000;" x="133.373495" xlink:href="#m15667a3d2b" y="114.646678"/>
     <use style="fill:#009afa;stroke:#000000;" x="162.176505" xlink:href="#m15667a3d2b" y="149.923971"/>
     <use style="fill:#009afa;stroke:#000000;" x="190.979514" xlink:href="#m15667a3d2b" y="76.162357"/>
     <use style="fill:#009afa;stroke:#000000;" x="219.782523" xlink:href="#m15667a3d2b" y="88.990464"/>
     <use style="fill:#009afa;stroke:#000000;" x="248.585533" xlink:href="#m15667a3d2b" y="127.474784"/>
     <use style="fill:#009afa;stroke:#000000;" x="277.388542" xlink:href="#m15667a3d2b" y="121.060731"/>
    </g>
   </g>
   <g id="PathCollection_2">
    <defs>
     <path d="M 0 2 
C 0.530406 2 1.03916 1.789267 1.414214 1.414214 
C 1.789267 1.03916 2 0.530406 2 0 
C 2 -0.530406 1.789267 -1.03916 1.414214 -1.414214 
C 1.03916 -1.789267 0.530406 -2 0 -2 
C -0.530406 -2 -1.03916 -1.789267 -1.414214 -1.414214 
C -1.789267 -1.03916 -2 -0.530406 -2 0 
C -2 0.530406 -1.789267 1.03916 -1.414214 1.414214 
C -1.03916 1.789267 -0.530406 2 0 2 
z
" id="m4e71c88e8b" style="stroke:#000000;"/>
    </defs>
    <g clip-path="url(#p523ca2dc7d)">
     <use style="fill:#e36f47;stroke:#000000;" x="18.161458" xlink:href="#m4e71c88e8b" y="71.216379"/>
     <use style="fill:#e36f47;stroke:#000000;" x="46.964467" xlink:href="#m4e71c88e8b" y="43.002177"/>
     <use style="fill:#e36f47;stroke:#000000;" x="75.767477" xlink:href="#m4e71c88e8b" y="75.162179"/>
     <use style="fill:#e36f47;stroke:#000000;" x="104.570486" xlink:href="#m4e71c88e8b" y="92.183806"/>
     <use style="fill:#e36f47;stroke:#000000;" x="133.373495" xlink:href="#m4e71c88e8b" y="38.636023"/>
     <use style="fill:#e36f47;stroke:#000000;" x="162.176505" xlink:href="#m4e71c88e8b" y="28.995559"/>
     <use style="fill:#e36f47;stroke:#000000;" x="190.979514" xlink:href="#m4e71c88e8b" y="133.794866"/>
     <use style="fill:#e36f47;stroke:#000000;" x="219.782523" xlink:href="#m4e71c88e8b" y="118.075907"/>
     <use style="fill:#e36f47;stroke:#000000;" x="248.585533" xlink:href="#m4e71c88e8b" y="126.378432"/>
     <use style="fill:#e36f47;stroke:#000000;" x="277.388542" xlink:href="#m4e71c88e8b" y="73.007889"/>
    </g>
   </g>
   <g id="patch_3">
    <path d="M 10.384646 165.959104 
L 10.384646 5.607771 
" style="fill:none;stroke:#000000;stroke-linecap:square;stroke-linejoin:miter;"/>
   </g>
   <g id="patch_4">
    <path d="M 10.384646 165.959104 
L 285.165354 165.959104 
" style="fill:none;stroke:#000000;stroke-linecap:square;stroke-linejoin:miter;"/>
   </g>
   <g id="line2d_23">
    <path clip-path="url(#p523ca2dc7d)" d="M 18.161458 71.216379 
L 18.161458 51.240181 
" style="fill:none;stroke:#663399;stroke-linecap:round;"/>
   </g>
   <g id="line2d_24">
    <path clip-path="url(#p523ca2dc7d)" d="M 46.964467 43.002177 
L 46.964467 54.771727 
" style="fill:none;stroke:#663399;stroke-linecap:round;"/>
   </g>
   <g id="line2d_25">
    <path clip-path="url(#p523ca2dc7d)" d="M 75.767477 75.162179 
L 75.767477 43.592002 
" style="fill:none;stroke:#663399;stroke-linecap:round;"/>
   </g>
   <g id="line2d_26">
    <path clip-path="url(#p523ca2dc7d)" d="M 104.570486 92.183806 
L 104.570486 116.243349 
" style="fill:none;stroke:#663399;stroke-linecap:round;"/>
   </g>
   <g id="line2d_27">
    <path clip-path="url(#p523ca2dc7d)" d="M 133.373495 38.636023 
L 133.373495 76.64135 
" style="fill:none;stroke:#663399;stroke-linecap:round;"/>
   </g>
   <g id="line2d_28">
    <path clip-path="url(#p523ca2dc7d)" d="M 162.176505 28.995559 
L 162.176505 89.459765 
" style="fill:none;stroke:#663399;stroke-linecap:round;"/>
   </g>
   <g id="line2d_29">
    <path clip-path="url(#p523ca2dc7d)" d="M 190.979514 133.794866 
L 190.979514 104.978612 
" style="fill:none;stroke:#663399;stroke-linecap:round;"/>
   </g>
   <g id="line2d_30">
    <path clip-path="url(#p523ca2dc7d)" d="M 219.782523 118.075907 
L 219.782523 103.533185 
" style="fill:none;stroke:#663399;stroke-linecap:round;"/>
   </g>
   <g id="line2d_31">
    <path clip-path="url(#p523ca2dc7d)" d="M 248.585533 126.378432 
L 248.585533 126.926608 
" style="fill:none;stroke:#663399;stroke-linecap:round;"/>
   </g>
   <g id="line2d_32">
    <path clip-path="url(#p523ca2dc7d)" d="M 277.388542 73.007889 
L 277.388542 97.03431 
" style="fill:none;stroke:#663399;stroke-linecap:round;"/>
   </g>
   <g id="line2d_33">
    <path clip-path="url(#p523ca2dc7d)" d="M 18.161458 51.240181 
L 18.161458 41.252083 
" style="fill:none;stroke:#5a822c;stroke-linecap:round;"/>
   </g>
   <g id="line2d_34">
    <path clip-path="url(#p523ca2dc7d)" d="M 46.964467 54.771727 
L 46.964467 60.656502 
" style="fill:none;stroke:#5a822c;stroke-linecap:round;"/>
   </g>
   <g id="line2d_35">
    <path clip-path="url(#p523ca2dc7d)" d="M 75.767477 43.592002 
L 75.767477 27.806913 
" style="fill:none;stroke:#5a822c;stroke-linecap:round;"/>
   </g>
   <g id="line2d_36">
    <path clip-path="url(#p523ca2dc7d)" d="M 104.570486 116.243349 
L 104.570486 128.27312 
" style="fill:none;stroke:#5a822c;stroke-linecap:round;"/>
   </g>
   <g id="line2d_37">
    <path clip-path="url(#p523ca2dc7d)" d="M 133.373495 76.64135 
L 133.373495 95.644014 
" style="fill:none;stroke:#5a822c;stroke-linecap:round;"/>
   </g>
   <g id="line2d_38">
    <path clip-path="url(#p523ca2dc7d)" d="M 162.176505 89.459765 
L 162.176505 119.691868 
" style="fill:none;stroke:#5a822c;stroke-linecap:round;"/>
   </g>
   <g id="line2d_39">
    <path clip-path="url(#p523ca2dc7d)" d="M 190.979514 104.978612 
L 190.979514 90.570485 
" style="fill:none;stroke:#5a822c;stroke-linecap:round;"/>
   </g>
   <g id="line2d_40">
    <path clip-path="url(#p523ca2dc7d)" d="M 219.782523 103.533185 
L 219.782523 96.261825 
" style="fill:none;stroke:#5a822c;stroke-linecap:round;"/>
   </g>
   <g id="line2d_41">
    <path clip-path="url(#p523ca2dc7d)" d="M 248.585533 126.926608 
L 248.585533 127.200696 
" style="fill:none;stroke:#5a822c;stroke-linecap:round;"/>
   </g>
   <g id="line2d_42">
    <path clip-path="url(#p523ca2dc7d)" d="M 277.388542 97.03431 
L 277.388542 109.04752 
" style="fill:none;stroke:#5a822c;stroke-linecap:round;"/>
   </g>
   <g id="line2d_43">
    <path clip-path="url(#p523ca2dc7d)" d="M 18.161458 41.252083 
L 18.161458 36.258033 
" style="fill:none;stroke:#762e00;stroke-linecap:round;"/>
   </g>
   <g id="line2d_44">
    <path clip-path="url(#p523ca2dc7d)" d="M 46.964467 60.656502 
L 46.964467 63.59889 
" style="fill:none;stroke:#762e00;stroke-linecap:round;"/>
   </g>
   <g id="line2d_45">
    <path clip-path="url(#p523ca2dc7d)" d="M 75.767477 27.806913 
L 75.767477 19.914368 
" style="fill:none;stroke:#762e00;stroke-linecap:round;"/>
   </g>
   <g id="line2d_46">
    <path clip-path="url(#p523ca2dc7d)" d="M 104.570486 128.27312 
L 104.570486 134.288005 
" style="fill:none;stroke:#762e00;stroke-linecap:round;"/>
   </g>
   <g id="line2d_47">
    <path clip-path="url(#p523ca2dc7d)" d="M 133.373495 95.644014 
L 133.373495 105.145346 
" style="fill:none;stroke:#762e00;stroke-linecap:round;"/>
   </g>
   <g id="line2d_48">
    <path clip-path="url(#p523ca2dc7d)" d="M 162.176505 119.691868 
L 162.176505 134.80792 
" style="fill:none;stroke:#762e00;stroke-linecap:round;"/>
   </g>
   <g id="line2d_49">
    <path clip-path="url(#p523ca2dc7d)" d="M 190.979514 90.570485 
L 190.979514 83.366421 
" style="fill:none;stroke:#762e00;stroke-linecap:round;"/>
   </g>
   <g id="line2d_50">
    <path clip-path="url(#p523ca2dc7d)" d="M 219.782523 96.261825 
L 219.782523 92.626144 
" style="fill:none;stroke:#762e00;stroke-linecap:round;"/>
   </g>
   <g id="line2d_51">
    <path clip-path="url(#p523ca2dc7d)" d="M 248.585533 127.200696 
L 248.585533 127.33774 
" style="fill:none;stroke:#762e00;stroke-linecap:round;"/>
   </g>
   <g id="line2d_52">
    <path clip-path="url(#p523ca2dc7d)" d="M 277.388542 109.04752 
L 277.388542 115.054126 
" style="fill:none;stroke:#762e00;stroke-linecap:round;"/>
   </g>
   <g id="line2d_53">
    <path clip-path="url(#p523ca2dc7d)" d="M 18.161458 36.258033 
L 18.161458 33.761009 
" style="fill:none;stroke:#008aa6;stroke-linecap:round;"/>
   </g>
   <g id="line2d_54">
    <path clip-path="url(#p523ca2dc7d)" d="M 46.964467 63.59889 
L 46.964467 65.070084 
" style="fill:none;stroke:#008aa6;stroke-linecap:round;"/>
   </g>
   <g id="line2d_55">
    <path clip-path="url(#p523ca2dc7d)" d="M 75.767477 19.914368 
L 75.767477 15.968096 
" style="fill:none;stroke:#008aa6;stroke-linecap:round;"/>
   </g>
   <g id="line2d_56">
    <path clip-path="url(#p523ca2dc7d)" d="M 104.570486 134.288005 
L 104.570486 137.295448 
" style="fill:none;stroke:#008aa6;stroke-linecap:round;"/>
   </g>
   <g id="line2d_57">
    <path clip-path="url(#p523ca2dc7d)" d="M 133.373495 105.145346 
L 133.373495 109.896012 
" style="fill:none;stroke:#008aa6;stroke-linecap:round;"/>
   </g>
   <g id="line2d_58">
    <path clip-path="url(#p523ca2dc7d)" d="M 162.176505 134.80792 
L 162.176505 142.365945 
" style="fill:none;stroke:#008aa6;stroke-linecap:round;"/>
   </g>
   <g id="line2d_59">
    <path clip-path="url(#p523ca2dc7d)" d="M 190.979514 83.366421 
L 190.979514 79.764389 
" style="fill:none;stroke:#008aa6;stroke-linecap:round;"/>
   </g>
   <g id="line2d_60">
    <path clip-path="url(#p523ca2dc7d)" d="M 219.782523 92.626144 
L 219.782523 90.808304 
" style="fill:none;stroke:#008aa6;stroke-linecap:round;"/>
   </g>
   <g id="line2d_61">
    <path clip-path="url(#p523ca2dc7d)" d="M 248.585533 127.33774 
L 248.585533 127.406262 
" style="fill:none;stroke:#008aa6;stroke-linecap:round;"/>
   </g>
   <g id="line2d_62">
    <path clip-path="url(#p523ca2dc7d)" d="M 277.388542 115.054126 
L 277.388542 118.057428 
" style="fill:none;stroke:#008aa6;stroke-linecap:round;"/>
   </g>
   <g id="line2d_63">
    <path clip-path="url(#p523ca2dc7d)" d="M 18.161458 33.761009 
L 18.161458 32.512496 
" style="fill:none;stroke:#002c25;stroke-linecap:round;"/>
   </g>
   <g id="line2d_64">
    <path clip-path="url(#p523ca2dc7d)" d="M 46.964467 65.070084 
L 46.964467 65.805681 
" style="fill:none;stroke:#002c25;stroke-linecap:round;"/>
   </g>
   <g id="line2d_65">
    <path clip-path="url(#p523ca2dc7d)" d="M 75.767477 15.968096 
L 75.767477 13.99496 
" style="fill:none;stroke:#002c25;stroke-linecap:round;"/>
   </g>
   <g id="line2d_66">
    <path clip-path="url(#p523ca2dc7d)" d="M 104.570486 137.295448 
L 104.570486 138.79917 
" style="fill:none;stroke:#002c25;stroke-linecap:round;"/>
   </g>
   <g id="line2d_67">
    <path clip-path="url(#p523ca2dc7d)" d="M 133.373495 109.896012 
L 133.373495 112.271345 
" style="fill:none;stroke:#002c25;stroke-linecap:round;"/>
   </g>
   <g id="line2d_68">
    <path clip-path="url(#p523ca2dc7d)" d="M 162.176505 142.365945 
L 162.176505 146.144958 
" style="fill:none;stroke:#002c25;stroke-linecap:round;"/>
   </g>
   <g id="line2d_69">
    <path clip-path="url(#p523ca2dc7d)" d="M 190.979514 79.764389 
L 190.979514 77.963373 
" style="fill:none;stroke:#002c25;stroke-linecap:round;"/>
   </g>
   <g id="line2d_70">
    <path clip-path="url(#p523ca2dc7d)" d="M 219.782523 90.808304 
L 219.782523 89.899384 
" style="fill:none;stroke:#002c25;stroke-linecap:round;"/>
   </g>
   <g id="line2d_71">
    <path clip-path="url(#p523ca2dc7d)" d="M 248.585533 127.406262 
L 248.585533 127.440523 
" style="fill:none;stroke:#002c25;stroke-linecap:round;"/>
   </g>
   <g id="line2d_72">
    <path clip-path="url(#p523ca2dc7d)" d="M 277.388542 118.057428 
L 277.388542 119.55908 
" style="fill:none;stroke:#002c25;stroke-linecap:round;"/>
   </g>
   <g id="patch_5">
    <path d="M 16.661458 54.240181 
Q 17.411458 52.740181 18.161458 51.240181 
Q 18.911458 52.740181 19.661458 54.240181 
z
" style="fill:#663399;stroke:#663399;stroke-linecap:round;"/>
   </g>
   <g id="patch_6">
    <path d="M 48.464467 51.771727 
Q 47.714467 53.271727 46.964467 54.771727 
Q 46.214467 53.271727 45.464467 51.771727 
z
" style="fill:#663399;stroke:#663399;stroke-linecap:round;"/>
   </g>
   <g id="patch_7">
    <path d="M 74.267477 46.592002 
Q 75.017477 45.092002 75.767477 43.592002 
Q 76.517477 45.092002 77.267477 46.592002 
z
" style="fill:#663399;stroke:#663399;stroke-linecap:round;"/>
   </g>
   <g id="patch_8">
    <path d="M 106.070486 113.243349 
Q 105.320486 114.743349 104.570486 116.243349 
Q 103.820486 114.743349 103.070486 113.243349 
z
" style="fill:#663399;stroke:#663399;stroke-linecap:round;"/>
   </g>
   <g id="patch_9">
    <path d="M 134.873495 73.64135 
Q 134.123495 75.14135 133.373495 76.64135 
Q 132.623495 75.14135 131.873495 73.64135 
z
" style="fill:#663399;stroke:#663399;stroke-linecap:round;"/>
   </g>
   <g id="patch_10">
    <path d="M 163.676505 86.459765 
Q 162.926505 87.959765 162.176505 89.459765 
Q 161.426505 87.959765 160.676505 86.459765 
z
" style="fill:#663399;stroke:#663399;stroke-linecap:round;"/>
   </g>
   <g id="patch_11">
    <path d="M 189.479514 107.978612 
Q 190.229514 106.478612 190.979514 104.978612 
Q 191.729514 106.478612 192.479514 107.978612 
z
" style="fill:#663399;stroke:#663399;stroke-linecap:round;"/>
   </g>
   <g id="patch_12">
    <path d="M 218.282523 106.533185 
Q 219.032523 105.033185 219.782523 103.533185 
Q 220.532523 105.033185 221.282523 106.533185 
z
" style="fill:#663399;stroke:#663399;stroke-linecap:round;"/>
   </g>
   <g id="patch_13">
    <path d="M 250.085533 123.926608 
Q 249.335533 125.426608 248.585533 126.926608 
Q 247.835533 125.426608 247.085533 123.926608 
z
" style="fill:#663399;stroke:#663399;stroke-linecap:round;"/>
   </g>
   <g id="patch_14">
    <path d="M 278.888542 94.03431 
Q 278.138542 95.53431 277.388542 97.03431 
Q 276.638542 95.53431 275.888542 94.03431 
z
" style="fill:#663399;stroke:#663399;stroke-linecap:round;"/>
   </g>
   <g id="patch_15">
    <path d="M 16.661458 44.252083 
Q 17.411458 42.752083 18.161458 41.252083 
Q 18.911458 42.752083 19.661458 44.252083 
z
" style="fill:#5a822c;stroke:#5a822c;stroke-linecap:round;"/>
   </g>
   <g id="patch_16">
    <path d="M 48.464467 57.656502 
Q 47.714467 59.156502 46.964467 60.656502 
Q 46.214467 59.156502 45.464467 57.656502 
z
" style="fill:#5a822c;stroke:#5a822c;stroke-linecap:round;"/>
   </g>
   <g id="patch_17">
    <path d="M 74.267477 30.806913 
Q 75.017477 29.306913 75.767477 27.806913 
Q 76.517477 29.306913 77.267477 30.806913 
z
" style="fill:#5a822c;stroke:#5a822c;stroke-linecap:round;"/>
   </g>
   <g id="patch_18">
    <path d="M 106.070486 125.27312 
Q 105.320486 126.77312 104.570486 128.27312 
Q 103.820486 126.77312 103.070486 125.27312 
z
" style="fill:#5a822c;stroke:#5a822c;stroke-linecap:round;"/>
   </g>
   <g id="patch_19">
    <path d="M 134.873495 92.644014 
Q 134.123495 94.144014 133.373495 95.644014 
Q 132.623495 94.144014 131.873495 92.644014 
z
" style="fill:#5a822c;stroke:#5a822c;stroke-linecap:round;"/>
   </g>
   <g id="patch_20">
    <path d="M 163.676505 116.691868 
Q 162.926505 118.191868 162.176505 119.691868 
Q 161.426505 118.191868 160.676505 116.691868 
z
" style="fill:#5a822c;stroke:#5a822c;stroke-linecap:round;"/>
   </g>
   <g id="patch_21">
    <path d="M 189.479514 93.570485 
Q 190.229514 92.070485 190.979514 90.570485 
Q 191.729514 92.070485 192.479514 93.570485 
z
" style="fill:#5a822c;stroke:#5a822c;stroke-linecap:round;"/>
   </g>
   <g id="patch_22">
    <path d="M 218.282523 99.261825 
Q 219.032523 97.761825 219.782523 96.261825 
Q 220.532523 97.761825 221.282523 99.261825 
z
" style="fill:#5a822c;stroke:#5a822c;stroke-linecap:round;"/>
   </g>
   <g id="patch_23">
    <path d="M 250.085533 124.200696 
Q 249.335533 125.700696 248.585533 127.200696 
Q 247.835533 125.700696 247.085533 124.200696 
z
" style="fill:#5a822c;stroke:#5a822c;stroke-linecap:round;"/>
   </g>
   <g id="patch_24">
    <path d="M 278.888542 106.04752 
Q 278.138542 107.54752 277.388542 109.04752 
Q 276.638542 107.54752 275.888542 106.04752 
z
" style="fill:#5a822c;stroke:#5a822c;stroke-linecap:round;"/>
   </g>
   <g id="patch_25">
    <path d="M 16.661458 39.258033 
Q 17.411458 37.758033 18.161458 36.258033 
Q 18.911458 37.758033 19.661458 39.258033 
z
" style="fill:#762e00;stroke:#762e00;stroke-linecap:round;"/>
   </g>
   <g id="patch_26">
    <path d="M 48.464467 60.59889 
Q 47.714467 62.09889 46.964467 63.59889 
Q 46.214467 62.09889 45.464467 60.59889 
z
" style="fill:#762e00;stroke:#762e00;stroke-linecap:round;"/>
   </g>
   <g id="patch_27">
    <path d="M 74.267477 22.914368 
Q 75.017477 21.414368 75.767477 19.914368 
Q 76.517477 21.414368 77.267477 22.914368 
z
" style="fill:#762e00;stroke:#762e00;stroke-linecap:round;"/>
   </g>
   <g id="patch_28">
    <path d="M 106.070486 131.288005 
Q 105.320486 132.788005 104.570486 134.288005 
Q 103.820486 132.788005 103.070486 131.288005 
z
" style="fill:#762e00;stroke:#762e00;stroke-linecap:round;"/>
   </g>
   <g id="patch_29">
    <path d="M 134.873495 102.145346 
Q 134.123495 103.645346 133.373495 105.145346 
Q 132.623495 103.645346 131.873495 102.145346 
z
" style="fill:#762e00;stroke:#762e00;stroke-linecap:round;"/>
   </g>
   <g id="patch_30">
    <path d="M 163.676505 131.80792 
Q 162.926505 133.30792 162.176505 134.80792 
Q 161.426505 133.30792 160.676505 131.80792 
z
" style="fill:#762e00;stroke:#762e00;stroke-linecap:round;"/>
   </g>
   <g id="patch_31">
    <path d="M 189.479514 86.366421 
Q 190.229514 84.866421 190.979514 83.366421 
Q 191.729514 84.866421 192.479514 86.366421 
z
" style="fill:#762e00;stroke:#762e00;stroke-linecap:round;"/>
   </g>
   <g id="patch_32">
    <path d="M 218.282523 95.626144 
Q 219.032523 94.126144 219.782523 92.626144 
Q 220.532523 94.126144 221.282523 95.626144 
z
" style="fill:#762e00;stroke:#762e00;stroke-linecap:round;"/>
   </g>
   <g id="patch_33">
    <path d="M 250.085533 124.33774 
Q 249.335533 125.83774 248.585533 127.33774 
Q 247.835533 125.83774 247.085533 124.33774 
z
" style="fill:#762e00;stroke:#762e00;stroke-linecap:round;"/>
   </g>
   <g id="patch_34">
    <path d="M 278.888542 112.054126 
Q 278.138542 113.554126 277.388542 115.054126 
Q 276.638542 113.554126 275.888542 112.054126 
z
" style="fill:#762e00;stroke:#762e00;stroke-linecap:round;"/>
   </g>
   <g id="patch_35">
    <path d="M 16.661458 36.761009 
Q 17.411458 35.261009 18.161458 33.761009 
Q 18.911458 35.261009 19.661458 36.761009 
z
" style="fill:#008aa6;stroke:#008aa6;stroke-linecap:round;"/>
   </g>
   <g id="patch_36">
    <path d="M 48.464467 62.070084 
Q 47.714467 63.570084 46.964467 65.070084 
Q 46.214467 63.570084 45.464467 62.070084 
z
" style="fill:#008aa6;stroke:#008aa6;stroke-linecap:round;"/>
   </g>
   <g id="patch_37">
    <path d="M 74.267477 18.968096 
Q 75.017477 17.468096 75.767477 15.968096 
Q 76.517477 17.468096 77.267477 18.968096 
z
" style="fill:#008aa6;stroke:#008aa6;stroke-linecap:round;"/>
   </g>
   <g id="patch_38">
    <path d="M 106.070486 134.295448 
Q 105.320486 135.795448 104.570486 137.295448 
Q 103.820486 135.795448 103.070486 134.295448 
z
" style="fill:#008aa6;stroke:#008aa6;stroke-linecap:round;"/>
   </g>
   <g id="patch_39">
    <path d="M 134.873495 106.896012 
Q 134.123495 108.396012 133.373495 109.896012 
Q 132.623495 108.396012 131.873495 106.896012 
z
" style="fill:#008aa6;stroke:#008aa6;stroke-linecap:round;"/>
   </g>
   <g id="patch_40">
    <path d="M 163.676505 139.365945 
Q 162.926505 140.865945 162.176505 142.365945 
Q 161.426505 140.865945 160.676505 139.365945 
z
" style="fill:#008aa6;stroke:#008aa6;stroke-linecap:round;"/>
   </g>
   <g id="patch_41">
    <path d="M 189.479514 82.764389 
Q 190.229514 81.264389 190.979514 79.764389 
Q 191.729514 81.264389 192.479514 82.764389 
z
" style="fill:#008aa6;stroke:#008aa6;stroke-linecap:round;"/>
   </g>
   <g id="patch_42">
    <path d="M 218.282523 93.808304 
Q 219.032523 92.308304 219.782523 90.808304 
Q 220.532523 92.308304 221.282523 93.808304 
z
" style="fill:#008aa6;stroke:#008aa6;stroke-linecap:round;"/>
   </g>
   <g id="patch_43">
    <path d="M 250.085533 124.406262 
Q 249.335533 125.906262 248.585533 127.406262 
Q 247.835533 125.906262 247.085533 124.406262 
z
" style="fill:#008aa6;stroke:#008aa6;stroke-linecap:round;"/>
   </g>
   <g id="patch_44">
    <path d="M 278.888542 115.057428 
Q 278.138542 116.557428 277.388542 118.057428 
Q 276.638542 116.557428 275.888542 115.057428 
z
" style="fill:#008aa6;stroke:#008aa6;stroke-linecap:round;"/>
   </g>
   <g id="patch_45">
    <path d="M 16.661458 35.512496 
Q 17.411458 34.012496 18.161458 32.512496 
Q 18.911458 34.012496 19.661458 35.512496 
z
" style="fill:#002c25;stroke:#002c25;stroke-linecap:round;"/>
   </g>
   <g id="patch_46">
    <path d="M 48.464467 62.805681 
Q 47.714467 64.305681 46.964467 65.805681 
Q 46.214467 64.305681 45.464467 62.805681 
z
" style="fill:#002c25;stroke:#002c25;stroke-linecap:round;"/>
   </g>
   <g id="patch_47">
    <path d="M 74.267477 16.99496 
Q 75.017477 15.49496 75.767477 13.99496 
Q 76.517477 15.49496 77.267477 16.99496 
z
" style="fill:#002c25;stroke:#002c25;stroke-linecap:round;"/>
   </g>
   <g id="patch_48">
    <path d="M 106.070486 135.79917 
Q 105.320486 137.29917 104.570486 138.79917 
Q 103.820486 137.29917 103.070486 135.79917 
z
" style="fill:#002c25;stroke:#002c25;stroke-linecap:round;"/>
   </g>
   <g id="patch_49">
    <path d="M 134.873495 109.271345 
Q 134.123495 110.771345 133.373495 112.271345 
Q 132.623495 110.771345 131.873495 109.271345 
z
" style="fill:#002c25;stroke:#002c25;stroke-linecap:round;"/>
   </g>
   <g id="patch_50">
    <path d="M 163.676505 143.144958 
Q 162.926505 144.644958 162.176505 146.144958 
Q 161.426505 144.644958 160.676505 143.144958 
z
" style="fill:#002c25;stroke:#002c25;stroke-linecap:round;"/>
   </g>
   <g id="patch_51">
    <path d="M 189.479514 80.963373 
Q 190.229514 79.463373 190.979514 77.963373 
Q 191.729514 79.463373 192.479514 80.963373 
z
" style="fill:#002c25;stroke:#002c25;stroke-linecap:round;"/>
   </g>
   <g id="patch_52">
    <path d="M 218.282523 92.899384 
Q 219.032523 91.399384 219.782523 89.899384 
Q 220.532523 91.399384 221.282523 92.899384 
z
" style="fill:#002c25;stroke:#002c25;stroke-linecap:round;"/>
   </g>
   <g id="patch_53">
    <path d="M 250.085533 124.440523 
Q 249.335533 125.940523 248.585533 127.440523 
Q 247.835533 125.940523 247.085533 124.440523 
z
" style="fill:#002c25;stroke:#002c25;stroke-linecap:round;"/>
   </g>
   <g id="patch_54">
    <path d="M 278.888542 116.55908 
Q 278.138542 118.05908 277.388542 119.55908 
Q 276.638542 118.05908 275.888542 116.55908 
z
" style="fill:#002c25;stroke:#002c25;stroke-linecap:round;"/>
   </g>
   <g id="legend_1">
    <g id="patch_55">
     <path d="M 201.614104 36.070271 
L 279.565354 36.070271 
Q 281.165354 36.070271 281.165354 34.470271 
L 281.165354 11.207771 
Q 281.165354 9.607771 279.565354 9.607771 
L 201.614104 9.607771 
Q 200.014104 9.607771 200.014104 11.207771 
L 200.014104 34.470271 
Q 200.014104 36.070271 201.614104 36.070271 
z
" style="fill:#ffffff;stroke:#000000;stroke-linejoin:miter;"/>
    </g>
    <g id="line2d_73">
     <path d="M 203.214104 15.827771 
L 219.214104 15.827771 
" style="fill:none;"/>
    </g>
    <g id="line2d_74">
     <defs>
      <path d="M 0 3 
C 0.795609 3 1.55874 2.683901 2.12132 2.12132 
C 2.683901 1.55874 3 0.795609 3 0 
C 3 -0.795609 2.683901 -1.55874 2.12132 -2.12132 
C 1.55874 -2.683901 0.795609 -3 0 -3 
C -0.795609 -3 -1.55874 -2.683901 -2.12132 -2.12132 
C -2.683901 -1.55874 -3 -0.795609 -3 0 
C -3 0.795609 -2.683901 1.55874 -2.12132 2.12132 
C -1.55874 2.683901 -0.795609 3 0 3 
z
" id="m864b814d48" style="stroke:#000000;"/>
     </defs>
     <g>
      <use style="fill:#009afa;stroke:#000000;" x="211.214104" xlink:href="#m864b814d48" y="15.827771"/>
     </g>
    </g>
    <g id="text_12">
     <!-- training points -->
     <defs>
      <path d="M 2.25 38.28125 
L 2.25 40.328125 
Q 7.125 42.1875 10.015625 43.65625 
Q 10.015625 55.28125 9.71875 58.5 
Q 14.796875 60.25 17.96875 62.25 
L 19.140625 61.28125 
Q 18.609375 57.234375 17.96875 43.40625 
Q 21.875 43.359375 22.65625 43.359375 
Q 23.09375 43.359375 27.6875 43.453125 
Q 30.21875 43.5 31.5 43.65625 
L 31.84375 43.3125 
L 30.8125 38.765625 
Q 27.734375 38.8125 25.140625 38.8125 
Q 22.5625 38.8125 17.96875 38.765625 
L 17.671875 18.890625 
Q 17.53125 11.625 17.765625 10.203125 
Q 18.015625 8.796875 18.703125 7.734375 
Q 19.390625 6.6875 20.484375 6.046875 
Q 21.578125 5.421875 24.21875 5.078125 
Q 26.21875 5.078125 27.46875 5.25 
Q 28.71875 5.421875 30.609375 6.109375 
L 31.203125 4.203125 
Q 28.90625 2.390625 26.765625 0.4375 
Q 24.90625 -0.25 23.296875 -0.46875 
Q 21.6875 -0.6875 19.578125 -0.6875 
Q 17 -0.6875 15.453125 -0.09375 
Q 13.921875 0.484375 12.640625 1.53125 
Q 11.375 2.59375 10.546875 4.203125 
Q 9.71875 5.8125 9.46875 9.28125 
Q 9.515625 12.59375 9.671875 16.546875 
Q 9.71875 17.328125 9.71875 18.265625 
L 9.71875 38.53125 
L 7.71875 38.53125 
Q 5.28125 38.53125 2.25 38.28125 
z
" id="Palatino-Roman-116"/>
      <path d="M 2.296875 0 
L 2.296875 2.78125 
Q 7.8125 2.875 8.25 2.984375 
Q 9.078125 3.125 9.484375 3.4375 
Q 9.90625 3.765625 10.15625 4.34375 
Q 10.640625 5.46875 10.75 7.859375 
Q 11.03125 20.90625 11.03125 21.484375 
L 11.03125 27.296875 
Q 11.03125 31.203125 10.890625 35.6875 
Q 10.796875 38.578125 10.46875 39.109375 
Q 10.15625 39.65625 9.34375 39.921875 
Q 8.546875 40.1875 2.984375 40.140625 
L 2.984375 42.921875 
Q 12.84375 44.28125 17.390625 46.484375 
Q 18.359375 46.96875 18.703125 46.96875 
Q 19.046875 46.96875 19.234375 46.71875 
Q 19.4375 46.484375 19.4375 46 
Q 19.4375 45.65625 19.390625 45.21875 
Q 19.140625 42.234375 19.09375 35.984375 
Q 21.296875 38.53125 23.140625 41.015625 
Q 25 43.5 25.828125 44.234375 
Q 27.296875 45.515625 29.203125 46.265625 
Q 31.109375 47.015625 33.15625 47.015625 
Q 35.203125 47.015625 37.203125 46.140625 
L 37.5 45.453125 
Q 36.765625 38.96875 36.671875 34.03125 
L 34.46875 34.03125 
Q 33.34375 36.375 31.859375 37.453125 
Q 30.375 38.53125 28.125 38.53125 
Q 24.359375 38.53125 21.71875 35.421875 
Q 19.09375 32.328125 19.09375 26.125 
L 19.09375 21.09375 
Q 19.09375 17.875 19.34375 9.328125 
Q 19.390625 6.296875 19.578125 5.46875 
Q 19.78125 4.640625 20.09375 4.265625 
Q 20.40625 3.90625 21.140625 3.65625 
Q 22.609375 3.21875 29.046875 2.78125 
L 29.046875 0 
Q 20.453125 0.34375 14.40625 0.34375 
Q 8.15625 0.34375 2.296875 0 
z
" id="Palatino-Roman-114"/>
      <path d="M 10.59375 33.453125 
L 8.015625 34.125 
Q 8.0625 35.25 8.0625 37.203125 
Q 8.0625 39.265625 8.015625 40.484375 
Q 14.203125 44.53125 18.171875 45.953125 
Q 21.1875 46.96875 24.953125 46.96875 
Q 30.515625 46.96875 34.328125 44.875 
Q 38.140625 42.78125 39.984375 38.875 
Q 41.265625 36.140625 41.265625 31.390625 
L 41.0625 22.46875 
L 41.0625 7.90625 
Q 41.0625 5.5625 41.453125 4.546875 
Q 41.75 3.8125 42.390625 3.46875 
Q 42.875 3.171875 44.4375 3.078125 
L 47.609375 2.78125 
L 47.609375 0 
Q 43.609375 0.34375 40.578125 0.34375 
Q 37.640625 0.34375 32.765625 0 
L 33.015625 8.59375 
Q 23.046875 1.078125 21.1875 0.125 
Q 19.34375 -0.828125 16.5 -0.828125 
Q 10.59375 -0.828125 7.296875 2.3125 
Q 4 5.46875 4 10.6875 
Q 4 14.0625 5.140625 16.84375 
Q 6.296875 19.625 7.90625 21.265625 
Q 9.515625 22.90625 11.1875 23.6875 
Q 14.015625 25 20.390625 26.515625 
Q 26.765625 28.03125 33.015625 28.765625 
Q 33.0625 33.40625 31.890625 35.984375 
Q 30.71875 38.578125 27.921875 40.234375 
Q 25.140625 41.890625 21.140625 41.890625 
Q 18.265625 41.890625 16.09375 41.109375 
Q 13.921875 40.328125 13.421875 39.796875 
L 12.546875 38.03125 
Q 11.234375 35.109375 10.59375 33.453125 
z
M 33.015625 25.78125 
Q 26.65625 24.703125 22.15625 23.390625 
Q 17.671875 22.078125 15.828125 20.65625 
Q 14.703125 19.828125 13.875 18.171875 
Q 12.59375 15.71875 12.59375 12.75 
Q 12.59375 9.125 14.59375 7.09375 
Q 16.609375 5.078125 20.171875 5.078125 
Q 23.4375 5.078125 26.625 6.953125 
Q 29.828125 8.84375 33.015625 12.59375 
z
" id="Palatino-Roman-97"/>
      <path d="M 14.109375 68.75 
Q 16.40625 68.75 17.984375 67.140625 
Q 19.578125 65.53125 19.578125 63.234375 
Q 19.578125 60.984375 17.96875 59.375 
Q 16.359375 57.765625 14.109375 57.765625 
Q 11.8125 57.765625 10.203125 59.375 
Q 8.59375 60.984375 8.59375 63.234375 
Q 8.59375 65.53125 10.203125 67.140625 
Q 11.8125 68.75 14.109375 68.75 
z
M 2.203125 40.1875 
L 2.203125 42.96875 
Q 11.671875 44.046875 18.109375 47.078125 
L 19.1875 46.296875 
Q 18.796875 35.890625 18.796875 30.375 
L 18.796875 21.484375 
Q 19.046875 8.796875 19.09375 7.765625 
Q 19.140625 5.328125 19.625 4.203125 
Q 19.875 3.765625 20.265625 3.4375 
Q 20.65625 3.125 21.4375 2.9375 
Q 21.734375 2.875 26.859375 2.78125 
L 26.859375 0 
Q 19.4375 0.34375 14.984375 0.34375 
Q 11.078125 0.34375 2.203125 0 
L 2.203125 2.78125 
L 6.84375 2.828125 
Q 7.859375 2.875 8.421875 3.1875 
Q 8.984375 3.515625 9.28125 4 
Q 9.8125 4.984375 9.96875 7.46875 
Q 9.96875 8.109375 10.25 21.484375 
L 10.25 30.078125 
Q 10.25 37.359375 9.765625 38.71875 
Q 9.46875 39.453125 8.703125 39.8125 
Q 7.953125 40.1875 2.203125 40.1875 
z
" id="Palatino-Roman-105"/>
      <path d="M 1.375 0 
L 1.375 2.78125 
L 6 2.828125 
Q 7.03125 2.875 7.59375 3.1875 
Q 8.15625 3.515625 8.453125 4 
Q 8.984375 4.984375 9.125 7.46875 
Q 9.125 8.109375 9.421875 21.484375 
L 9.421875 27.296875 
Q 9.421875 31.203125 9.28125 35.6875 
Q 9.125 38.578125 8.8125 39.109375 
Q 8.5 39.65625 7.71875 39.921875 
Q 6.9375 40.1875 1.375 40.140625 
L 1.375 42.921875 
Q 11.234375 44.28125 15.765625 46.484375 
Q 16.75 46.96875 17.09375 46.96875 
Q 17.4375 46.96875 17.625 46.71875 
Q 17.828125 46.484375 17.828125 46 
Q 17.828125 45.65625 17.78125 45.21875 
Q 17.625 43.453125 17.484375 37.796875 
L 26.5625 45.5625 
Q 30.5625 47.015625 34.125 47.015625 
Q 38.09375 47.015625 41.625 45.40625 
Q 45.171875 43.796875 46.953125 41.359375 
Q 48.734375 38.921875 49.3125 35.203125 
Q 49.65625 33.015625 49.65625 22.953125 
L 49.65625 14.3125 
Q 49.65625 7.953125 50 5.671875 
Q 50.25 4.203125 50.75 3.640625 
Q 51.265625 3.078125 52.34375 2.9375 
L 57.5625 2.78125 
L 57.5625 0 
Q 52.78125 0.34375 49.609375 0.34375 
Q 46.875 0.34375 40.53125 0 
Q 41.21875 12.0625 41.21875 15.234375 
L 41.21875 23.4375 
Q 41.21875 31.109375 40.625 33.5 
Q 39.796875 36.765625 36.859375 38.765625 
Q 33.9375 40.765625 29.78125 40.765625 
Q 26.125 40.765625 23.09375 39.03125 
Q 20.0625 37.3125 18.765625 35.03125 
Q 17.484375 32.765625 17.484375 27.390625 
L 17.484375 21.484375 
Q 17.78125 8.796875 17.78125 7.765625 
Q 17.875 5.328125 18.359375 4.203125 
Q 18.5625 3.765625 18.953125 3.4375 
Q 19.34375 3.125 20.171875 2.9375 
Q 20.453125 2.875 25.53125 2.78125 
L 25.53125 0 
Q 19.578125 0.34375 14.75 0.34375 
Q 10.640625 0.34375 1.375 0 
z
" id="Palatino-Roman-110"/>
      <path d="M 54.109375 43.21875 
L 54.5 42.28125 
Q 52.59375 39.40625 52 38.328125 
L 42.921875 38.328125 
Q 44.046875 35.453125 44.046875 32.90625 
Q 44.046875 29.203125 42.109375 25.65625 
Q 40.1875 22.125 36.46875 19.609375 
Q 32.765625 17.09375 28.5625 16.21875 
Q 25.828125 15.625 21.1875 15.71875 
Q 18.015625 13.1875 17.1875 11.921875 
Q 16.65625 11.03125 16.65625 10.015625 
Q 16.65625 8.84375 17.359375 7.9375 
Q 18.0625 7.03125 19.53125 6.6875 
Q 21.734375 6.109375 27.34375 6.109375 
L 37.890625 6.296875 
Q 43.40625 6.296875 46.265625 4.859375 
Q 49.125 3.421875 50.484375 0.46875 
Q 51.859375 -2.484375 51.859375 -6.203125 
Q 51.859375 -11.234375 48.5625 -16.421875 
Q 45.265625 -21.625 38.765625 -24.625 
Q 32.28125 -27.640625 24.21875 -27.640625 
Q 17.484375 -27.640625 12.75 -25.53125 
Q 8.015625 -23.4375 5.734375 -19.921875 
Q 3.46875 -16.40625 3.46875 -12.546875 
Q 3.46875 -10.40625 4.125 -8.515625 
Q 4.78125 -6.640625 6.34375 -4.5 
Q 12.3125 -1.765625 14.890625 0.296875 
Q 10.84375 1.609375 9.6875 2.78125 
Q 8.546875 3.953125 8.546875 5.125 
Q 8.546875 6.109375 10.015625 10.40625 
Q 12.40625 12.40625 17.53125 16.0625 
Q 13.140625 17.28125 10.765625 18.921875 
Q 8.40625 20.5625 7.078125 23.359375 
Q 5.765625 26.171875 5.765625 29.546875 
Q 5.765625 34.515625 8.296875 38.453125 
Q 10.84375 42.390625 16.84375 44.84375 
Q 22.859375 47.3125 27.984375 47.3125 
Q 31.296875 47.3125 34.296875 46.234375 
Q 37.3125 45.171875 39.984375 43.015625 
Q 49.171875 43.0625 54.109375 43.21875 
z
M 14.15625 32.234375 
Q 14.15625 28.765625 15.453125 25.484375 
Q 16.75 22.21875 19.265625 20.546875 
Q 21.78125 18.890625 25 18.890625 
Q 29.203125 18.890625 32.421875 21.59375 
Q 35.640625 24.3125 35.640625 30.328125 
Q 35.640625 36.46875 32.421875 40.109375 
Q 29.203125 43.75 24.65625 43.75 
Q 19.921875 43.75 17.03125 40.75 
Q 14.15625 37.75 14.15625 32.234375 
z
M 28.46875 -0.53125 
Q 21.1875 -0.53125 19.34375 -0.734375 
Q 18.40625 -0.875 17.234375 -1.703125 
Q 13.375 -4.4375 13.140625 -4.734375 
Q 12.640625 -5.21875 12.0625 -6.734375 
Q 11.03125 -9.46875 11.03125 -12.25 
Q 11.03125 -17.390625 15.015625 -20.921875 
Q 19 -24.46875 25.984375 -24.46875 
Q 31.15625 -24.46875 35.421875 -22.390625 
Q 39.703125 -20.3125 41.875 -16.71875 
Q 44.046875 -13.140625 44.046875 -9.515625 
Q 43.890625 -6.390625 43.078125 -4.78125 
Q 42.28125 -3.171875 41.125 -2.234375 
Q 39.984375 -1.3125 37.984375 -0.734375 
Q 36.8125 -0.59375 28.46875 -0.53125 
z
" id="Palatino-Roman-103"/>
      <path id="Palatino-Roman-32"/>
      <path d="M 1.765625 40.1875 
L 1.765625 43.015625 
Q 2.640625 43.015625 5.46875 43.421875 
Q 8.296875 43.84375 11.765625 44.84375 
Q 15.234375 45.84375 17 46.78125 
Q 17.53125 47.078125 17.875 47.078125 
Q 18.21875 47.078125 18.4375 46.828125 
Q 18.65625 46.578125 18.65625 46 
Q 18.65625 45.75 18.609375 44.828125 
Q 18.5 43.40625 18.5 42.234375 
L 18.5 37.0625 
Q 26.765625 44.734375 28.8125 45.703125 
Q 31.5 47.015625 36.8125 47.015625 
Q 43.015625 47.015625 47.5 44.203125 
Q 52 41.40625 54.03125 36.9375 
Q 56.0625 32.46875 56.0625 27.390625 
Q 56.0625 24.3125 55.34375 21.578125 
Q 54.640625 18.84375 53.53125 16.421875 
Q 52.4375 14.015625 51.09375 11.984375 
Q 49.75 9.96875 48.578125 8.9375 
Q 47.90625 8.296875 45.046875 6 
Q 42.1875 3.71875 38.9375 2.03125 
Q 35.6875 0.34375 34.421875 -0.046875 
Q 31.640625 -0.921875 28.515625 -0.921875 
Q 26.078125 -0.921875 23.75 -0.328125 
Q 21.4375 0.25 18.5 1.65625 
L 18.5 -6.109375 
Q 18.75 -18.453125 18.796875 -19.734375 
Q 18.84375 -22.125 19.390625 -23.25 
Q 19.578125 -23.78125 19.984375 -24.09375 
Q 20.40625 -24.421875 21.1875 -24.5625 
Q 21.625 -24.65625 27 -24.75 
L 27 -27.546875 
Q 20.90625 -27.296875 10.84375 -27.296875 
Q 5.28125 -27.296875 2.296875 -27.546875 
L 2.296875 -24.75 
L 6.9375 -24.703125 
Q 7.953125 -24.65625 8.515625 -24.34375 
Q 9.078125 -24.03125 9.375 -23.53125 
Q 9.90625 -22.5625 10.0625 -20.0625 
Q 10.109375 -19.4375 10.359375 -6.109375 
L 10.359375 11.234375 
Q 10.359375 19.671875 10.15625 28.5625 
Q 9.96875 37.453125 9.734375 38.25 
Q 9.515625 39.0625 9.03125 39.46875 
Q 8.546875 39.890625 7.765625 40.046875 
z
M 18.5 10.0625 
Q 21.09375 7.421875 24.40625 5.90625 
Q 27.734375 4.390625 31.390625 4.390625 
Q 35.84375 4.390625 39.46875 6.609375 
Q 43.109375 8.84375 45.234375 13.53125 
Q 47.359375 18.21875 47.359375 23.734375 
Q 47.359375 29.046875 45.328125 32.984375 
Q 43.3125 36.921875 39.59375 38.890625 
Q 35.890625 40.875 32.125 40.875 
Q 29.34375 40.875 26.625 39.765625 
Q 23.921875 38.671875 21.71875 36.5625 
Q 19.53125 34.46875 18.796875 32.5625 
Q 18.5 31.640625 18.5 29 
z
" id="Palatino-Roman-112"/>
      <path d="M 3.328125 22.46875 
Q 3.328125 33.40625 10.28125 40.3125 
Q 17.234375 47.21875 28.125 47.21875 
Q 38.375 47.21875 44.8125 40.765625 
Q 51.265625 34.328125 51.265625 24.125 
Q 51.265625 17 47.9375 11.078125 
Q 44.625 5.171875 38.5625 1.828125 
Q 32.515625 -1.515625 25.25 -1.515625 
Q 19.578125 -1.515625 15.640625 0.390625 
Q 11.71875 2.296875 9.28125 5.171875 
Q 6.84375 8.0625 5.5625 11.078125 
Q 3.328125 16.40625 3.328125 22.46875 
z
M 12.546875 26.078125 
Q 12.546875 20.0625 14.546875 13.859375 
Q 16.546875 7.671875 20.328125 4.8125 
Q 24.125 1.953125 28.5625 1.953125 
Q 34.234375 1.953125 38.03125 6.4375 
Q 41.84375 10.9375 41.84375 20.265625 
Q 41.84375 28.03125 39.578125 33.671875 
Q 37.3125 39.3125 33.796875 41.625 
Q 30.28125 43.953125 26.03125 43.953125 
Q 20.015625 43.953125 16.28125 39.59375 
Q 12.546875 35.25 12.546875 26.078125 
z
" id="Palatino-Roman-111"/>
      <path d="M 4.546875 14.75 
L 7.46875 14.75 
Q 7.515625 11.921875 7.765625 10.25 
Q 8.015625 8.59375 8.59375 7 
Q 9.1875 5.421875 10.40625 4.3125 
Q 11.625 3.21875 13.0625 2.609375 
Q 14.5 2 15.984375 1.796875 
Q 17.484375 1.609375 20.515625 1.609375 
Q 25.484375 1.609375 28.6875 4.25 
Q 31.890625 6.890625 31.890625 11.46875 
Q 31.890625 13.53125 30.890625 15.09375 
Q 29.890625 16.65625 28 17.53125 
Q 26.125 18.40625 19.921875 19.8125 
Q 13.71875 21.234375 11.921875 21.875 
Q 9.1875 22.90625 7.5625 24.359375 
Q 5.953125 25.828125 5 28.078125 
Q 4.046875 30.328125 4.046875 32.953125 
Q 4.046875 36.8125 6.078125 40.0625 
Q 8.109375 43.3125 12.453125 45.328125 
Q 16.796875 47.359375 21.921875 47.359375 
Q 25 47.359375 29.046875 46.5 
Q 33.109375 45.65625 35.640625 44.390625 
Q 35.296875 38.96875 35.15625 33.34375 
L 32.375 33.34375 
Q 32.125 36.921875 31.8125 38.03125 
Q 31.5 39.15625 30.953125 40.03125 
Q 30.421875 40.921875 29.09375 41.921875 
Q 27.78125 42.921875 25.703125 43.703125 
Q 23.640625 44.484375 20.609375 44.484375 
Q 16.3125 44.484375 13.6875 41.9375 
Q 11.078125 39.40625 11.078125 35.984375 
Q 11.078125 34.078125 11.828125 32.703125 
Q 12.59375 31.34375 13.859375 30.484375 
Q 15.140625 29.640625 17.4375 28.953125 
L 25.53125 26.953125 
Q 31.6875 25.390625 34 24.265625 
Q 36.328125 23.140625 37.734375 20.765625 
Q 39.15625 18.40625 39.15625 15.09375 
Q 39.15625 8.5 33.703125 3.59375 
Q 28.265625 -1.3125 19.140625 -1.3125 
Q 14.9375 -1.3125 7.953125 -0.046875 
Q 4.109375 0.6875 3.8125 0.984375 
Q 3.609375 1.125 3.609375 1.46875 
Q 3.609375 1.8125 3.71875 2.296875 
Q 4.15625 4.390625 4.296875 6.390625 
Q 4.4375 8.40625 4.546875 14.75 
z
" id="Palatino-Roman-115"/>
     </defs>
     <g transform="translate(225.614104 18.627771)scale(0.08 -0.08)">
      <use xlink:href="#Palatino-Roman-116"/>
      <use x="32.617188" xlink:href="#Palatino-Roman-114"/>
      <use x="72.119141" xlink:href="#Palatino-Roman-97"/>
      <use x="122.119141" xlink:href="#Palatino-Roman-105"/>
      <use x="151.220703" xlink:href="#Palatino-Roman-110"/>
      <use x="209.423828" xlink:href="#Palatino-Roman-105"/>
      <use x="238.525391" xlink:href="#Palatino-Roman-110"/>
      <use x="296.728516" xlink:href="#Palatino-Roman-103"/>
      <use x="352.34375" xlink:href="#Palatino-Roman-32"/>
      <use x="377.34375" xlink:href="#Palatino-Roman-112"/>
      <use x="437.451172" xlink:href="#Palatino-Roman-111"/>
      <use x="492.041016" xlink:href="#Palatino-Roman-105"/>
      <use x="521.142578" xlink:href="#Palatino-Roman-110"/>
      <use x="579.345703" xlink:href="#Palatino-Roman-116"/>
      <use x="611.962891" xlink:href="#Palatino-Roman-115"/>
     </g>
    </g>
    <g id="line2d_75">
     <path d="M 203.214104 27.859021 
L 219.214104 27.859021 
" style="fill:none;"/>
    </g>
    <g id="line2d_76">
     <defs>
      <path d="M 0 3 
C 0.795609 3 1.55874 2.683901 2.12132 2.12132 
C 2.683901 1.55874 3 0.795609 3 0 
C 3 -0.795609 2.683901 -1.55874 2.12132 -2.12132 
C 1.55874 -2.683901 0.795609 -3 0 -3 
C -0.795609 -3 -1.55874 -2.683901 -2.12132 -2.12132 
C -2.683901 -1.55874 -3 -0.795609 -3 0 
C -3 0.795609 -2.683901 1.55874 -2.12132 2.12132 
C -1.55874 2.683901 -0.795609 3 0 3 
z
" id="mcaaa947d59" style="stroke:#000000;"/>
     </defs>
     <g>
      <use style="fill:#e36f47;stroke:#000000;" x="211.214104" xlink:href="#mcaaa947d59" y="27.859021"/>
     </g>
    </g>
    <g id="text_13">
     <!-- initial guess -->
     <defs>
      <path d="M 2.484375 0 
L 2.484375 2.78125 
L 7.078125 2.828125 
Q 8.15625 2.875 8.71875 3.1875 
Q 9.28125 3.515625 9.578125 4 
Q 10.109375 4.984375 10.203125 7.46875 
Q 10.25 8.109375 10.546875 21.484375 
L 10.546875 41.75 
Q 10.546875 49.90625 10.25 58.59375 
Q 10.0625 64.453125 9.71875 65.140625 
Q 9.46875 65.625 8.9375 65.828125 
Q 8.203125 66.15625 2.203125 66.15625 
L 2.203125 69.046875 
Q 13.234375 70.40625 17.53125 72.46875 
Q 18.171875 72.75 18.5 72.75 
Q 18.84375 72.75 19.03125 72.53125 
Q 19.234375 72.3125 19.234375 71.921875 
Q 19.234375 71.578125 19.140625 70.953125 
L 19.09375 69.34375 
Q 18.84375 60.59375 18.796875 54.4375 
L 18.703125 46.828125 
L 18.703125 21.484375 
Q 18.953125 8.796875 19 7.765625 
Q 19.046875 5.328125 19.578125 4.203125 
Q 19.78125 3.765625 20.171875 3.4375 
Q 20.5625 3.125 21.34375 2.9375 
Q 21.6875 2.875 26.765625 2.78125 
L 26.765625 0 
Q 20.125 0.390625 15.09375 0.390625 
Q 10.296875 0.390625 2.484375 0 
z
" id="Palatino-Roman-108"/>
      <path d="M 57.765625 2.78125 
L 57.765625 0 
Q 51.375 0.34375 48.09375 0.34375 
Q 44.484375 0.34375 40.765625 0 
Q 41.0625 3.953125 41.21875 8.890625 
Q 38.28125 6.546875 34.234375 2.484375 
Q 33.296875 1.5625 32.421875 1.125 
Q 30.328125 -0.046875 28.21875 -0.5625 
Q 26.125 -1.078125 23.1875 -1.078125 
Q 19.234375 -1.078125 16.578125 0 
Q 13.921875 1.078125 12.015625 3.265625 
Q 10.59375 4.890625 9.828125 7.453125 
Q 9.078125 10.015625 9.078125 13.625 
Q 9.078125 15.328125 9.203125 16.84375 
Q 9.328125 18.359375 9.328125 19.828125 
L 9.328125 28.171875 
Q 9.328125 29.4375 9.1875 34.578125 
Q 9.078125 37.796875 8.734375 38.765625 
Q 8.546875 39.265625 8.109375 39.546875 
Q 7.375 40.046875 5.515625 40.046875 
Q 2.828125 40.046875 1.265625 40.09375 
L 1.265625 42.875 
Q 11.765625 44.046875 16.5 46.625 
Q 17.28125 47.078125 17.71875 47.078125 
Q 18.0625 47.078125 18.28125 46.828125 
Q 18.5 46.578125 18.5 46.09375 
Q 18.5 45.703125 18.453125 45.125 
Q 18.265625 43.5625 18.109375 39.109375 
Q 17.828125 30.953125 17.828125 28.171875 
L 17.828125 18.65625 
Q 17.828125 12.703125 18.625 10.28125 
Q 19.4375 7.859375 21.75 6.421875 
Q 24.078125 4.984375 27.484375 4.984375 
Q 29.828125 4.984375 32.140625 5.78125 
Q 34.46875 6.59375 36.328125 8.109375 
Q 37.703125 9.234375 39.109375 11.140625 
Q 40.1875 12.546875 40.53125 13.296875 
Q 40.875 14.0625 40.96875 15.53125 
Q 41.21875 19.828125 41.21875 24.078125 
L 41.21875 28.171875 
Q 41.21875 29.4375 41.0625 34.578125 
Q 40.96875 37.796875 40.625 38.765625 
Q 40.4375 39.265625 39.984375 39.546875 
Q 39.265625 40.046875 37.40625 40.046875 
Q 34.71875 40.046875 33.15625 40.09375 
L 33.15625 42.875 
Q 43.65625 44.046875 48.390625 46.625 
Q 49.171875 47.078125 49.609375 47.078125 
Q 49.953125 47.078125 50.171875 46.828125 
Q 50.390625 46.578125 50.390625 46.09375 
Q 50.390625 45.703125 50.34375 45.125 
Q 50.203125 43.5625 50 38.921875 
Q 49.703125 30.953125 49.703125 28.171875 
L 49.703125 21.484375 
L 49.8125 14.703125 
Q 49.953125 8.796875 50 7.765625 
Q 50.046875 5.328125 50.53125 4.203125 
Q 50.78125 3.765625 51.171875 3.4375 
Q 51.5625 3.125 52.34375 2.9375 
Q 52.640625 2.875 57.765625 2.78125 
z
" id="Palatino-Roman-117"/>
      <path d="M 43.171875 7.5625 
L 41.609375 4.046875 
Q 38.234375 1.953125 36.671875 1.265625 
Q 34.375 0.25 31.421875 -0.453125 
Q 28.46875 -1.171875 25.203125 -1.171875 
Q 18.75 -1.171875 13.515625 1.515625 
Q 8.296875 4.203125 5.390625 9.546875 
Q 2.484375 14.890625 2.484375 22.078125 
Q 2.484375 27.6875 4.015625 32.203125 
Q 5.5625 36.71875 7.515625 38.875 
Q 8.9375 40.4375 11.90625 42.453125 
Q 14.890625 44.484375 17.828125 45.65625 
Q 21.6875 47.265625 26.171875 47.265625 
Q 31.640625 47.265625 36.0625 44.765625 
Q 40.484375 42.28125 42.53125 37.984375 
Q 44.578125 33.6875 44.578125 28.265625 
Q 44.578125 26.90625 44.390625 24.953125 
Q 40.875 24.265625 38.09375 24.078125 
Q 32.8125 23.6875 27.546875 23.6875 
L 11.859375 23.6875 
Q 11.96875 16.703125 14.28125 12.375 
Q 16.609375 8.0625 20.671875 6 
Q 24.75 3.953125 29.15625 3.953125 
Q 32.125 3.953125 35.078125 4.90625 
Q 38.03125 5.859375 42.390625 8.40625 
z
M 11.859375 27.546875 
Q 13.234375 27.390625 17.046875 27.25 
Q 24.3125 27 27.046875 27 
Q 33.546875 27 35.59375 27.25 
Q 35.640625 28.421875 35.640625 29.046875 
Q 35.640625 36.765625 32.515625 40.375 
Q 29.390625 44 24.171875 44 
Q 18.65625 44 15.28125 40.03125 
Q 11.921875 36.078125 11.859375 27.546875 
z
" id="Palatino-Roman-101"/>
     </defs>
     <g transform="translate(225.614104 30.659021)scale(0.08 -0.08)">
      <use xlink:href="#Palatino-Roman-105"/>
      <use x="29.101562" xlink:href="#Palatino-Roman-110"/>
      <use x="87.304688" xlink:href="#Palatino-Roman-105"/>
      <use x="116.40625" xlink:href="#Palatino-Roman-116"/>
      <use x="149.023438" xlink:href="#Palatino-Roman-105"/>
      <use x="178.125" xlink:href="#Palatino-Roman-97"/>
      <use x="228.125" xlink:href="#Palatino-Roman-108"/>
      <use x="257.226562" xlink:href="#Palatino-Roman-32"/>
      <use x="282.226562" xlink:href="#Palatino-Roman-103"/>
      <use x="337.841797" xlink:href="#Palatino-Roman-117"/>
      <use x="398.144531" xlink:href="#Palatino-Roman-101"/>
      <use x="446.044922" xlink:href="#Palatino-Roman-115"/>
      <use x="488.427734" xlink:href="#Palatino-Roman-115"/>
     </g>
    </g>
   </g>
  </g>
 </g>
 <defs>
  <clipPath id="p523ca2dc7d">
   <rect height="160.351334" width="274.780709" x="10.384646" y="5.607771"/>
  </clipPath>
 </defs>
</svg>
